<svg width="1400" height="788" viewBox="0 0 1400 788" fill="none" xmlns="http://www.w3.org/2000/svg">
  <rect width="1400" height="788" fill="#ffffff"/>
  <g opacity="0.72">
    <path d="M0 126H1400" stroke="#3d372b" stroke-width="2"/>
    <path d="M0 300H1400" stroke="#3d372b" stroke-width="2"/>
    <path d="M0 482H1400" stroke="#3d372b" stroke-width="2"/>
    <path d="M0 646H1400" stroke="#3d372b" stroke-width="2"/>
    <path d="M180 0V788" stroke="#3d372b" stroke-width="2"/>
    <path d="M390 0V788" stroke="#3d372b" stroke-width="2"/>
    <path d="M612 0V788" stroke="#3d372b" stroke-width="2"/>
    <path d="M840 0V788" stroke="#3d372b" stroke-width="2"/>
    <path d="M1084 0V788" stroke="#3d372b" stroke-width="2"/>
    <path d="M1260 0V788" stroke="#3d372b" stroke-width="2"/>
  </g>
  <path d="M-80 610C156 560 256 590 440 472C644 340 778 330 930 238C1082 146 1190 122 1490 166" stroke="#ffffff" stroke-width="86" stroke-linecap="round"/>
  <path d="M-80 610C156 560 256 590 440 472C644 340 778 330 930 238C1082 146 1190 122 1490 166" stroke="#3d372b" stroke-width="2" stroke-dasharray="18 18"/>
  <path d="M112 110C242 198 334 248 494 250C710 252 810 312 984 430C1102 510 1202 544 1484 520" stroke="#ffffff" stroke-width="70" stroke-linecap="round"/>
  <path d="M112 110C242 198 334 248 494 250C710 252 810 312 984 430C1102 510 1202 544 1484 520" stroke="#3d372b" stroke-width="2" stroke-dasharray="16 16"/>
  <rect x="92" y="86" width="230" height="138" rx="34" fill="#ffffff"/>
  <rect x="92" y="86" width="230" height="138" rx="34" stroke="#ffffff" stroke-width="6"/>
  <rect x="94" y="88" width="226" height="134" rx="32" stroke="#3d372b" stroke-width="3" opacity="0.65"/>
  <rect x="1060" y="438" width="246" height="150" rx="34" fill="#ffffff"/>
  <rect x="1060" y="438" width="246" height="150" rx="34" stroke="#ffffff" stroke-width="6"/>
  <rect x="1062" y="440" width="242" height="146" rx="32" stroke="#3d372b" stroke-width="3" opacity="0.65"/>
  <g filter="url(#shadow)">
    <path d="M700 162C613 162 542 232 542 320C542 444 700 620 700 620C700 620 858 444 858 320C858 232 787 162 700 162Z" fill="#3d372b"/>
    <circle cx="700" cy="320" r="62" fill="#ffffff"/>
    <circle cx="700" cy="320" r="34" fill="#3d372b" opacity="0.18"/>
  </g>
  <circle cx="700" cy="666" r="78" fill="#3d372b" opacity="0.12"/>
  <circle cx="700" cy="666" r="40" fill="#3d372b" opacity="0.16"/>
  <defs>
    <filter id="shadow" x="492" y="122" width="416" height="538" filterUnits="userSpaceOnUse" color-interpolation-filters="sRGB">
      <feDropShadow dx="24" dy="28" stdDeviation="28" flood-color="#3d372b" flood-opacity="0.78"/>
      <feDropShadow dx="-20" dy="-20" stdDeviation="22" flood-color="#ffffff" flood-opacity="0.95"/>
    </filter>
  </defs>
</svg>
